<svg width="24" height="24" viewBox="0 0 24 24" fill="none" xmlns="http://www.w3.org/2000/svg">
<path d="M11.0444 2.29653C11.5438 1.70431 12.4562 1.70431 12.9556 2.29653L15.792 5.66004C16.0793 6.00071 16.4451 6.26646 16.8579 6.43442L20.9333 8.09265C21.6508 8.38462 21.9327 9.25229 21.5238 9.91027L19.2015 13.6473L19.8385 14.0431L19.2015 13.6473C18.9662 14.0258 18.8265 14.4558 18.7943 14.9002L18.4766 19.2886C18.4207 20.0613 17.6826 20.5975 16.9305 20.4119L12.6587 19.358C12.2261 19.2513 11.7739 19.2513 11.3413 19.358L7.06952 20.4119C6.31739 20.5975 5.5793 20.0613 5.52336 19.2886L5.20565 14.9002C5.17348 14.4558 5.03376 14.0258 4.79854 13.6473L2.47616 9.91027C2.06726 9.25229 2.34918 8.38462 3.06674 8.09265L7.14214 6.43442C7.55492 6.26646 7.92069 6.00071 8.20798 5.66004L11.0444 2.29653Z" stroke="white" stroke-width="1.5"/>
</svg>
